<svg xmlns="http://www.w3.org/2000/svg" version="1.1" xmlns:xlink="http://www.w3.org/1999/xlink" xmlns:svgjs="http://svgjs.dev/svgjs" width="1000" height="1000" viewBox="0 0 1000 1000"><rect width="1000" height="1000" fill="#ffffff"></rect><g transform="matrix(0.7,0,0,0.7,149.57575757575756,282.1265587044535)"><svg viewBox="0 0 396 247" data-background-color="#ffffff" preserveAspectRatio="xMidYMid meet" height="623" width="1000" xmlns="http://www.w3.org/2000/svg" xmlns:xlink="http://www.w3.org/1999/xlink"><g id="tight-bounds" transform="matrix(1,0,0,1,0.2400000000000091,-0.09999999999999432)"><svg viewBox="0 0 395.52 247.2" height="247.2" width="395.52"><g><svg></svg></g><g><svg viewBox="0 0 395.52 247.2" height="247.2" width="395.52"><g transform="matrix(1,0,0,1,75.54432,97.32457127466975)"><svg viewBox="0 0 244.43135999999998 52.55085745066047" height="52.55085745066047" width="244.43135999999998"><g><svg viewBox="0 0 244.43135999999998 52.55085745066047" height="52.55085745066047" width="244.43135999999998"><g><svg viewBox="0 0 244.43135999999998 52.55085745066047" height="52.55085745066047" width="244.43135999999998"><g><svg viewBox="0 0 244.43135999999998 52.55085745066047" height="52.55085745066047" width="244.43135999999998"><g><svg viewBox="0 0 244.43135999999998 52.55085745066047" height="52.55085745066047" width="244.43135999999998"><rect width="244.43135999999998" height="52.55085745066047" x="0" y="0" opacity="1" fill="#1cb68b" data-fill-palette-color="tertiary"></rect><g transform="matrix(1,0,0,1,14.5894968,14.589496800000001)"><svg width="215.25236639999997" viewBox="1.1200000047683716 -36.040000915527344 336.3500061035156 36.53000259399414" height="23.37186385066047" data-palette-color="#ffffff"><path d="M12.5-7.54L19.51-35.55 23.32-35.55 22.97-28.83 15.43 0 11.47 0 12.5-7.54ZM7.4-35.55L13.09-7.71 13.5 0 9.3 0 1.12-35.55 7.4-35.55ZM31.23-7.79L36.82-35.55 43.09-35.55 34.94 0 30.71 0 31.23-7.79ZM24.8-35.55L31.76-7.45 32.74 0 28.78 0 21.36-28.83 21.07-35.55 24.8-35.55ZM70.87-5.05L70.87 0 52.1 0 52.1-5.05 70.87-5.05ZM53.85-35.55L53.85 0 47.56 0 47.56-35.55 53.85-35.55ZM68.41-20.8L68.41-15.82 52.1-15.82 52.1-20.8 68.41-20.8ZM70.75-35.55L70.75-30.47 52.1-30.47 52.1-35.55 70.75-35.55ZM101.87-35.55L101.87 0 95.62 0 95.62-35.55 101.87-35.55ZM112.96-35.55L112.96-30.47 84.64-30.47 84.64-35.55 112.96-35.55ZM128.58-30.49L118.03 0 111.42 0 124.79-35.55 128.99-35.55 128.58-30.49ZM137.32 0L126.75-30.49 126.28-35.55 130.51-35.55 143.94 0 137.32 0ZM136.9-13.21L136.9-8.13 117.54-8.13 117.54-13.21 136.9-13.21ZM170.23-5.05L170.23 0 152.4 0 152.4-5.05 170.23-5.05ZM154.16-35.55L154.16 0 147.86 0 147.86-35.55 154.16-35.55ZM181.19-35.55L181.19 0 174.89 0 174.89-35.55 181.19-35.55ZM202.52-35.55L188.17-18.33 179.92-9.59 178.82-15.89 184.63-23.22 194.83-35.55 202.52-35.55ZM195.69 0L184.19-16.72 188.53-21.02 203.18 0 195.69 0ZM232.55-35.55L232.55 0 226.3 0 226.3-35.55 232.55-35.55ZM243.63-35.55L243.63-30.47 215.31-30.47 215.31-35.55 243.63-35.55ZM271.58-5.05L271.58 0 252.81 0 252.81-5.05 271.58-5.05ZM254.57-35.55L254.57 0 248.27 0 248.27-35.55 254.57-35.55ZM269.12-20.8L269.12-15.82 252.81-15.82 252.81-20.8 269.12-20.8ZM271.46-35.55L271.46-30.47 252.81-30.47 252.81-35.55 271.46-35.55ZM297.44-11.62L303.73-11.62Q303.44-8.13 301.77-5.38 300.1-2.64 297.09-1.07 294.09 0.49 289.75 0.49L289.75 0.49Q285.35 0.49 282.12-1.57 278.88-3.64 277.14-7.42 275.39-11.21 275.39-16.36L275.39-16.36 275.39-19.17Q275.39-24.34 277.17-28.11 278.95-31.88 282.24-33.96 285.52-36.04 289.99-36.04L289.99-36.04Q294.26-36.04 297.2-34.46 300.15-32.89 301.77-30.11 303.39-27.34 303.73-23.75L303.73-23.75 297.46-23.75Q297.09-27.15 295.45-29.03 293.8-30.91 289.99-30.91L289.99-30.91Q287.23-30.91 285.41-29.55 283.59-28.2 282.67-25.6 281.74-23 281.74-19.21L281.74-19.21 281.74-16.36Q281.74-12.74 282.57-10.12 283.4-7.5 285.16-6.07 286.91-4.64 289.75-4.64L289.75-4.64Q292.33-4.64 293.93-5.44 295.53-6.25 296.36-7.8 297.19-9.35 297.44-11.62L297.44-11.62ZM332.61-20.8L332.61-15.72 313.91-15.72 313.91-20.8 332.61-20.8ZM315.48-35.55L315.48 0 309.18 0 309.18-35.55 315.48-35.55ZM337.47-35.55L337.47 0 331.2 0 331.2-35.55 337.47-35.55Z" opacity="1" transform="matrix(1,0,0,1,0,0)" fill="#ffffff" class="undefined-text-0" data-fill-palette-color="quaternary" id="text-0"></path></svg></g></svg></g></svg></g></svg></g></svg></g></svg></g><path d="M200.24 91.325L200.24 27.353 392.733 27.353 392.733 219.847 200.24 219.847 200.24 155.875 203.027 155.875 203.027 217.06 389.947 217.06 389.947 30.14 203.027 30.14 203.027 91.325Z" fill="#8dbdff" stroke="transparent" data-fill-palette-color="primary"></path></svg></g><defs></defs></svg><rect width="395.52" height="247.2" fill="none" stroke="none" visibility="hidden"></rect></g></svg></g></svg>